<mxfile host="app.diagrams.net" agent="Mozilla/5.0 (Windows NT 10.0; Win64; x64) AppleWebKit/537.36 (KHTML, like Gecko) Chrome/134.0.0.0 Safari/537.36" version="26.2.4">
  <diagram name="Page-1" id="6F1oZ9demNvEGwpnsFEW">
    <mxGraphModel dx="1182" dy="634" grid="1" gridSize="10" guides="1" tooltips="1" connect="1" arrows="1" fold="1" page="1" pageScale="1" pageWidth="850" pageHeight="1100" math="1" shadow="0">
      <root>
        <mxCell id="0" />
        <mxCell id="1" parent="0" />
        <mxCell id="B6QFXqq1GN2ikdDSHE_t-1" value="Host&lt;div&gt;A&lt;/div&gt;" style="rounded=1;whiteSpace=wrap;html=1;fillColor=#dae8fc;strokeColor=#6c8ebf;fontFamily=Computer Modern;fontSize=20;" vertex="1" parent="1">
          <mxGeometry x="60" y="80" width="100" height="240" as="geometry" />
        </mxCell>
        <mxCell id="B6QFXqq1GN2ikdDSHE_t-2" value="&lt;div&gt;Host&lt;/div&gt;&lt;div&gt;B&lt;/div&gt;" style="rounded=1;whiteSpace=wrap;html=1;fillColor=#f8cecc;strokeColor=#b85450;fontFamily=Computer Modern;fontSize=20;" vertex="1" parent="1">
          <mxGeometry x="440" y="80" width="100" height="240" as="geometry" />
        </mxCell>
        <mxCell id="B6QFXqq1GN2ikdDSHE_t-3" value="" style="endArrow=classic;html=1;rounded=0;exitX=1.013;exitY=0.163;exitDx=0;exitDy=0;exitPerimeter=0;entryX=-0.003;entryY=0.334;entryDx=0;entryDy=0;entryPerimeter=0;fillColor=#dae8fc;strokeColor=#6c8ebf;fontFamily=Computer Modern;fontSize=15;" edge="1" parent="1" source="B6QFXqq1GN2ikdDSHE_t-1" target="B6QFXqq1GN2ikdDSHE_t-2">
          <mxGeometry width="50" height="50" relative="1" as="geometry">
            <mxPoint x="220" y="210" as="sourcePoint" />
            <mxPoint x="270" y="160" as="targetPoint" />
          </mxGeometry>
        </mxCell>
        <mxCell id="B6QFXqq1GN2ikdDSHE_t-6" value="&lt;div&gt;SYN&lt;/div&gt;&amp;nbsp; seq=&lt;font style=&quot;color: rgb(0, 76, 153);&quot;&gt;x&lt;/font&gt;&amp;nbsp;&amp;nbsp;" style="edgeLabel;html=1;align=center;verticalAlign=middle;resizable=0;points=[];labelBorderColor=default;spacing=2;textShadow=0;fontFamily=Computer Modern;fontSize=15;spacingTop=0;spacingBottom=0;" vertex="1" connectable="0" parent="B6QFXqq1GN2ikdDSHE_t-3">
          <mxGeometry x="-0.1629" y="2" relative="1" as="geometry">
            <mxPoint x="2" y="-4" as="offset" />
          </mxGeometry>
        </mxCell>
        <mxCell id="B6QFXqq1GN2ikdDSHE_t-4" value="" style="endArrow=classic;html=1;rounded=0;exitX=-0.009;exitY=0.405;exitDx=0;exitDy=0;exitPerimeter=0;entryX=1;entryY=0.5;entryDx=0;entryDy=0;fillColor=#f8cecc;strokeColor=#b85450;fontFamily=Computer Modern;fontSize=15;" edge="1" parent="1" source="B6QFXqq1GN2ikdDSHE_t-2" target="B6QFXqq1GN2ikdDSHE_t-1">
          <mxGeometry width="50" height="50" relative="1" as="geometry">
            <mxPoint x="170" y="220" as="sourcePoint" />
            <mxPoint x="314" y="261" as="targetPoint" />
          </mxGeometry>
        </mxCell>
        <mxCell id="B6QFXqq1GN2ikdDSHE_t-7" value="&lt;div&gt;SYN + ACK&lt;/div&gt;&amp;nbsp; seq=&lt;font style=&quot;color: rgb(255, 0, 0);&quot;&gt;y&lt;/font&gt;, ack=&lt;font style=&quot;color: rgb(0, 76, 153);&quot;&gt;x+1&lt;/font&gt;&amp;nbsp;&amp;nbsp;" style="edgeLabel;html=1;align=center;verticalAlign=middle;resizable=0;points=[];labelBorderColor=default;spacing=2;textShadow=0;fontFamily=Computer Modern;fontSize=15;" vertex="1" connectable="0" parent="B6QFXqq1GN2ikdDSHE_t-4">
          <mxGeometry x="0.1818" relative="1" as="geometry">
            <mxPoint x="16" as="offset" />
          </mxGeometry>
        </mxCell>
        <mxCell id="B6QFXqq1GN2ikdDSHE_t-8" value="" style="endArrow=classic;html=1;rounded=0;exitX=1.003;exitY=0.625;exitDx=0;exitDy=0;exitPerimeter=0;entryX=-0.031;entryY=0.865;entryDx=0;entryDy=0;entryPerimeter=0;fillColor=#dae8fc;strokeColor=#6c8ebf;fontFamily=Computer Modern;fontSize=15;" edge="1" parent="1" source="B6QFXqq1GN2ikdDSHE_t-1" target="B6QFXqq1GN2ikdDSHE_t-2">
          <mxGeometry width="50" height="50" relative="1" as="geometry">
            <mxPoint x="181" y="230" as="sourcePoint" />
            <mxPoint x="410" y="271" as="targetPoint" />
          </mxGeometry>
        </mxCell>
        <mxCell id="B6QFXqq1GN2ikdDSHE_t-9" value="&lt;div&gt;ACK&lt;/div&gt;&amp;nbsp; seq=&lt;font style=&quot;color: rgb(0, 76, 153);&quot;&gt;x+1&lt;/font&gt;, ack=&lt;font style=&quot;color: rgb(255, 0, 0);&quot;&gt;y+1&lt;/font&gt;&amp;nbsp;&amp;nbsp;" style="edgeLabel;html=1;align=center;verticalAlign=middle;resizable=0;points=[];textShadow=0;labelBorderColor=default;spacing=2;fontFamily=Computer Modern;fontSize=15;" vertex="1" connectable="0" parent="B6QFXqq1GN2ikdDSHE_t-8">
          <mxGeometry x="-0.1629" y="2" relative="1" as="geometry">
            <mxPoint x="13" y="28" as="offset" />
          </mxGeometry>
        </mxCell>
        <mxCell id="B6QFXqq1GN2ikdDSHE_t-10" value="&lt;ul&gt;&lt;li&gt;&lt;font style=&quot;font-size: 13px;&quot; face=&quot;Computer Modern&quot;&gt;&lt;b&gt;SEQ &lt;/b&gt;- Sequence Number&lt;/font&gt;&lt;/li&gt;&lt;li&gt;&lt;font style=&quot;font-size: 13px;&quot; face=&quot;Computer Modern&quot;&gt;&lt;b&gt;SYN &lt;/b&gt;-&amp;nbsp;Synchronize Sequence Number&lt;/font&gt;&lt;/li&gt;&lt;li&gt;&lt;font style=&quot;font-size: 13px;&quot; face=&quot;Computer Modern&quot;&gt;&lt;b&gt;ACK &lt;/b&gt;-&amp;nbsp;Acknowledgement&lt;/font&gt;&lt;/li&gt;&lt;/ul&gt;" style="text;html=1;align=left;verticalAlign=middle;whiteSpace=wrap;rounded=0;" vertex="1" parent="1">
          <mxGeometry x="50" y="330" width="250" height="50" as="geometry" />
        </mxCell>
        <mxCell id="B6QFXqq1GN2ikdDSHE_t-11" value="&amp;nbsp;TCP - Three-Way Handshake" style="text;html=1;align=center;verticalAlign=middle;whiteSpace=wrap;rounded=0;fontSize=15;fontFamily=Computer Modern;" vertex="1" parent="1">
          <mxGeometry x="200" y="50" width="200" height="30" as="geometry" />
        </mxCell>
      </root>
    </mxGraphModel>
  </diagram>
</mxfile>
